<svg width="188" height="39" viewBox="0 0 188 39" fill="none" xmlns="http://www.w3.org/2000/svg">
<path d="M0.172 9.92C0.172 7.04267 1.316 4.80667 3.604 3.212C5.892 1.61733 8.856 0.819998 12.496 0.819998C16.3787 0.819998 19.932 1.21866 23.156 2.016L22.896 12H20.556L17.956 4.512C16.5 4.23467 15.0267 4.096 13.536 4.096C11.144 4.096 9.25467 4.564 7.868 5.5C6.516 6.436 5.84 7.736 5.84 9.4C5.84 10.8213 6.44667 12.0173 7.66 12.988C8.908 13.924 11.0573 15.0333 14.108 16.316C15.7373 16.9747 17.072 17.5987 18.112 18.188C19.1867 18.7427 20.3307 19.488 21.544 20.424C22.7573 21.36 23.6587 22.4867 24.248 23.804C24.872 25.1213 25.184 26.5947 25.184 28.224C25.184 31.6907 23.9013 34.36 21.336 36.232C18.944 37.9653 15.9453 38.8147 12.34 38.78C11.3693 38.78 9.75733 38.6933 7.504 38.52C5.28533 38.3467 2.876 37.8787 0.276 37.116V26.872H2.668L5.32 34.672C6.776 35.1227 8.47467 35.348 10.416 35.348C13.12 35.348 15.304 34.88 16.968 33.944C18.632 32.9733 19.464 31.4653 19.464 29.42C19.464 27.86 18.7187 26.508 17.228 25.364C15.7373 24.22 13.5533 23.024 10.676 21.776C6.724 20.0773 3.98533 18.4307 2.46 16.836C0.934667 15.2413 0.172 12.936 0.172 9.92ZM27.0491 3.992V1.6H42.6491V3.992L38.2811 4.928L45.7171 28.536L53.2051 1.6H57.6251L66.3091 28.432L72.4451 5.136L68.2331 3.992V1.6H80.8171V3.992L76.0331 5.136L67.1931 38.364H63.0851L54.0371 11.22L46.3931 38.364H42.3891L31.5731 5.084L27.0491 3.992ZM83.2294 38V35.608L88.0134 34.464V5.136L83.2294 3.992V1.6H110.321V12.26H107.877L105.641 5.084L94.4094 4.668V18.032L105.641 17.044V21.672L94.4094 20.736V34.932L106.629 34.516L109.281 26.768H111.725L111.309 38H83.2294ZM113.734 38V35.608L118.622 34.464L131.258 1.34H135.002L146.858 34.516L151.642 35.608V38H136.354V35.608L140.202 34.724L137.706 27.704H124.966L122.262 34.568L126.838 35.608V38H113.734ZM126.11 24.636H136.562L131.466 10.44L126.11 24.636ZM153.815 38V35.608L158.599 34.464V5.136L153.815 3.992V1.6H168.531C170.403 1.6 172.119 1.756 173.679 2.068C175.239 2.34533 176.747 2.848 178.203 3.576C179.694 4.26933 180.855 5.32667 181.687 6.748C182.554 8.13466 182.987 9.816 182.987 11.792C182.987 16.4027 180.595 19.5227 175.811 21.152L183.039 34.516L187.615 35.66V38H178.151L169.571 21.932H164.995V34.464L169.779 35.608V38H153.815ZM164.995 18.812H168.011C170.542 18.812 172.57 18.188 174.095 16.94C175.655 15.692 176.435 13.9413 176.435 11.688C176.435 9.46933 175.673 7.788 174.147 6.644C172.622 5.46533 170.577 4.876 168.011 4.876H164.995V18.812Z" fill="#484848"/>
</svg>
